<svg xmlns="http://www.w3.org/2000/svg" width="660" height="400" viewBox="0 0 660 400">
  <defs>
    <linearGradient id="g" x1="0" y1="0" x2="0" y2="1">
      <stop offset="0%" stop-color="#141416"/>
      <stop offset="100%" stop-color="#080809"/>
    </linearGradient>
  </defs>
  <rect width="660" height="400" fill="url(#g)"/>
  <circle cx="394.1" cy="119.7" r="0.8" fill="#fff" fill-opacity="0.07"/><circle cx="651.5" cy="268.9" r="0.8" fill="#fff" fill-opacity="0.07"/><circle cx="574.1" cy="366.1" r="0.8" fill="#fff" fill-opacity="0.04"/><circle cx="658.3" cy="83.9" r="0.8" fill="#fff" fill-opacity="0.05"/><circle cx="655.2" cy="23.6" r="0.8" fill="#fff" fill-opacity="0.06"/><circle cx="20.0" cy="28.8" r="0.8" fill="#fff" fill-opacity="0.08"/><circle cx="609.8" cy="323.8" r="0.8" fill="#fff" fill-opacity="0.08"/><circle cx="42.1" cy="247.2" r="0.8" fill="#fff" fill-opacity="0.07"/><circle cx="134.6" cy="356.9" r="0.8" fill="#fff" fill-opacity="0.04"/><circle cx="529.8" cy="58.5" r="0.8" fill="#fff" fill-opacity="0.04"/><circle cx="472.9" cy="295.5" r="0.8" fill="#fff" fill-opacity="0.09"/><circle cx="539.6" cy="334.3" r="0.8" fill="#fff" fill-opacity="0.08"/><circle cx="23.9" cy="135.6" r="0.8" fill="#fff" fill-opacity="0.05"/><circle cx="434.8" cy="153.2" r="0.8" fill="#fff" fill-opacity="0.06"/><circle cx="521.5" cy="125.2" r="0.8" fill="#fff" fill-opacity="0.09"/><circle cx="368.3" cy="80.2" r="0.8" fill="#fff" fill-opacity="0.07"/><circle cx="378.9" cy="166.0" r="0.8" fill="#fff" fill-opacity="0.06"/><circle cx="554.6" cy="240.3" r="0.8" fill="#fff" fill-opacity="0.06"/><circle cx="473.5" cy="234.7" r="0.8" fill="#fff" fill-opacity="0.06"/><circle cx="378.7" cy="94.9" r="0.8" fill="#fff" fill-opacity="0.05"/><circle cx="390.2" cy="210.0" r="0.8" fill="#fff" fill-opacity="0.07"/><circle cx="194.7" cy="180.8" r="0.8" fill="#fff" fill-opacity="0.04"/><circle cx="509.0" cy="80.9" r="0.8" fill="#fff" fill-opacity="0.05"/><circle cx="561.1" cy="241.5" r="0.8" fill="#fff" fill-opacity="0.08"/><circle cx="615.3" cy="99.5" r="0.8" fill="#fff" fill-opacity="0.07"/><circle cx="259.7" cy="252.6" r="0.8" fill="#fff" fill-opacity="0.08"/><circle cx="152.9" cy="76.8" r="0.8" fill="#fff" fill-opacity="0.08"/><circle cx="0.2" cy="113.3" r="0.8" fill="#fff" fill-opacity="0.09"/><circle cx="505.8" cy="172.8" r="0.8" fill="#fff" fill-opacity="0.06"/><circle cx="336.1" cy="101.6" r="0.8" fill="#fff" fill-opacity="0.06"/><circle cx="556.7" cy="113.1" r="0.8" fill="#fff" fill-opacity="0.08"/><circle cx="38.8" cy="350.3" r="0.8" fill="#fff" fill-opacity="0.08"/><circle cx="296.0" cy="69.7" r="0.8" fill="#fff" fill-opacity="0.09"/><circle cx="190.2" cy="88.6" r="0.8" fill="#fff" fill-opacity="0.07"/><circle cx="511.3" cy="145.6" r="0.8" fill="#fff" fill-opacity="0.04"/><circle cx="277.9" cy="43.3" r="0.8" fill="#fff" fill-opacity="0.10"/><circle cx="183.3" cy="230.4" r="0.8" fill="#fff" fill-opacity="0.08"/><circle cx="593.2" cy="288.4" r="0.8" fill="#fff" fill-opacity="0.10"/><circle cx="169.4" cy="90.7" r="0.8" fill="#fff" fill-opacity="0.07"/><circle cx="260.2" cy="314.5" r="0.8" fill="#fff" fill-opacity="0.07"/><circle cx="623.0" cy="311.5" r="0.8" fill="#fff" fill-opacity="0.07"/><circle cx="604.0" cy="155.8" r="0.8" fill="#fff" fill-opacity="0.08"/><circle cx="586.5" cy="184.9" r="0.8" fill="#fff" fill-opacity="0.06"/><circle cx="491.1" cy="359.4" r="0.8" fill="#fff" fill-opacity="0.09"/><circle cx="119.0" cy="98.3" r="0.8" fill="#fff" fill-opacity="0.06"/><circle cx="32.6" cy="54.5" r="0.8" fill="#fff" fill-opacity="0.08"/><circle cx="538.2" cy="94.2" r="0.8" fill="#fff" fill-opacity="0.07"/><circle cx="188.4" cy="74.2" r="0.8" fill="#fff" fill-opacity="0.08"/><circle cx="424.3" cy="366.9" r="0.8" fill="#fff" fill-opacity="0.09"/><circle cx="161.8" cy="272.5" r="0.8" fill="#fff" fill-opacity="0.05"/><circle cx="543.4" cy="133.8" r="0.8" fill="#fff" fill-opacity="0.06"/><circle cx="457.6" cy="44.3" r="0.8" fill="#fff" fill-opacity="0.09"/><circle cx="234.4" cy="110.3" r="0.8" fill="#fff" fill-opacity="0.08"/><circle cx="312.3" cy="222.4" r="0.8" fill="#fff" fill-opacity="0.10"/><circle cx="296.7" cy="393.0" r="0.8" fill="#fff" fill-opacity="0.04"/><circle cx="385.8" cy="260.1" r="0.8" fill="#fff" fill-opacity="0.05"/><circle cx="401.2" cy="306.7" r="0.8" fill="#fff" fill-opacity="0.08"/><circle cx="33.9" cy="358.2" r="0.8" fill="#fff" fill-opacity="0.07"/><circle cx="286.2" cy="330.3" r="0.8" fill="#fff" fill-opacity="0.09"/><circle cx="103.9" cy="359.7" r="0.8" fill="#fff" fill-opacity="0.06"/><circle cx="64.2" cy="87.6" r="0.8" fill="#fff" fill-opacity="0.04"/><circle cx="503.3" cy="306.4" r="0.8" fill="#fff" fill-opacity="0.07"/><circle cx="8.4" cy="162.7" r="0.8" fill="#fff" fill-opacity="0.09"/><circle cx="293.1" cy="73.3" r="0.8" fill="#fff" fill-opacity="0.05"/><circle cx="105.8" cy="239.4" r="0.8" fill="#fff" fill-opacity="0.07"/><circle cx="205.6" cy="263.2" r="0.8" fill="#fff" fill-opacity="0.05"/><circle cx="563.9" cy="43.7" r="0.8" fill="#fff" fill-opacity="0.10"/><circle cx="92.3" cy="103.4" r="0.8" fill="#fff" fill-opacity="0.05"/><circle cx="455.7" cy="174.9" r="0.8" fill="#fff" fill-opacity="0.08"/><circle cx="20.9" cy="24.5" r="0.8" fill="#fff" fill-opacity="0.04"/><circle cx="79.4" cy="197.2" r="0.8" fill="#fff" fill-opacity="0.04"/><circle cx="651.1" cy="125.3" r="0.8" fill="#fff" fill-opacity="0.05"/><circle cx="140.3" cy="129.4" r="0.8" fill="#fff" fill-opacity="0.07"/><circle cx="338.8" cy="392.1" r="0.8" fill="#fff" fill-opacity="0.08"/><circle cx="394.0" cy="63.1" r="0.8" fill="#fff" fill-opacity="0.06"/><circle cx="523.6" cy="300.4" r="0.8" fill="#fff" fill-opacity="0.07"/><circle cx="57.4" cy="290.4" r="0.8" fill="#fff" fill-opacity="0.08"/><circle cx="39.2" cy="45.2" r="0.8" fill="#fff" fill-opacity="0.06"/><circle cx="145.5" cy="104.2" r="0.8" fill="#fff" fill-opacity="0.08"/><circle cx="367.5" cy="342.2" r="0.8" fill="#fff" fill-opacity="0.07"/><circle cx="567.8" cy="203.0" r="0.8" fill="#fff" fill-opacity="0.05"/><circle cx="425.2" cy="205.1" r="0.8" fill="#fff" fill-opacity="0.07"/><circle cx="511.7" cy="394.7" r="0.8" fill="#fff" fill-opacity="0.08"/><circle cx="454.7" cy="351.9" r="0.8" fill="#fff" fill-opacity="0.06"/><circle cx="605.4" cy="199.7" r="0.8" fill="#fff" fill-opacity="0.09"/><circle cx="632.7" cy="374.0" r="0.8" fill="#fff" fill-opacity="0.09"/><circle cx="361.7" cy="15.0" r="0.8" fill="#fff" fill-opacity="0.08"/><circle cx="54.8" cy="241.8" r="0.8" fill="#fff" fill-opacity="0.04"/><circle cx="630.2" cy="4.9" r="0.8" fill="#fff" fill-opacity="0.09"/><circle cx="555.9" cy="17.6" r="0.8" fill="#fff" fill-opacity="0.07"/><circle cx="69.3" cy="206.5" r="0.8" fill="#fff" fill-opacity="0.04"/><circle cx="225.8" cy="84.3" r="0.8" fill="#fff" fill-opacity="0.07"/><circle cx="516.6" cy="311.5" r="0.8" fill="#fff" fill-opacity="0.10"/><circle cx="239.3" cy="328.3" r="0.8" fill="#fff" fill-opacity="0.07"/><circle cx="337.8" cy="51.1" r="0.8" fill="#fff" fill-opacity="0.07"/><circle cx="347.7" cy="37.9" r="0.8" fill="#fff" fill-opacity="0.06"/><circle cx="6.6" cy="67.6" r="0.8" fill="#fff" fill-opacity="0.06"/><circle cx="201.4" cy="212.5" r="0.8" fill="#fff" fill-opacity="0.10"/><circle cx="350.2" cy="232.0" r="0.8" fill="#fff" fill-opacity="0.09"/><circle cx="615.0" cy="373.0" r="0.8" fill="#fff" fill-opacity="0.07"/><circle cx="489.9" cy="35.1" r="0.8" fill="#fff" fill-opacity="0.05"/><circle cx="312.1" cy="372.6" r="0.8" fill="#fff" fill-opacity="0.08"/><circle cx="13.4" cy="76.7" r="0.8" fill="#fff" fill-opacity="0.09"/><circle cx="518.0" cy="290.1" r="0.8" fill="#fff" fill-opacity="0.09"/><circle cx="269.8" cy="16.3" r="0.8" fill="#fff" fill-opacity="0.05"/><circle cx="442.3" cy="276.0" r="0.8" fill="#fff" fill-opacity="0.07"/><circle cx="407.4" cy="92.6" r="0.8" fill="#fff" fill-opacity="0.06"/><circle cx="8.7" cy="351.3" r="0.8" fill="#fff" fill-opacity="0.10"/><circle cx="65.0" cy="157.3" r="0.8" fill="#fff" fill-opacity="0.06"/><circle cx="508.1" cy="352.8" r="0.8" fill="#fff" fill-opacity="0.05"/><circle cx="137.0" cy="44.2" r="0.8" fill="#fff" fill-opacity="0.08"/><circle cx="209.1" cy="203.6" r="0.8" fill="#fff" fill-opacity="0.10"/><circle cx="163.3" cy="272.6" r="0.8" fill="#fff" fill-opacity="0.10"/><circle cx="636.9" cy="259.2" r="0.8" fill="#fff" fill-opacity="0.08"/><circle cx="384.1" cy="334.2" r="0.8" fill="#fff" fill-opacity="0.08"/><circle cx="361.2" cy="317.2" r="0.8" fill="#fff" fill-opacity="0.07"/><circle cx="70.4" cy="112.5" r="0.8" fill="#fff" fill-opacity="0.10"/><circle cx="569.0" cy="399.0" r="0.8" fill="#fff" fill-opacity="0.08"/><circle cx="97.9" cy="265.4" r="0.8" fill="#fff" fill-opacity="0.06"/><circle cx="656.2" cy="253.8" r="0.8" fill="#fff" fill-opacity="0.05"/><circle cx="626.9" cy="207.0" r="0.8" fill="#fff" fill-opacity="0.05"/><circle cx="497.5" cy="16.2" r="0.8" fill="#fff" fill-opacity="0.04"/><circle cx="237.4" cy="275.3" r="0.8" fill="#fff" fill-opacity="0.09"/><circle cx="83.1" cy="231.5" r="0.8" fill="#fff" fill-opacity="0.08"/><circle cx="362.0" cy="63.1" r="0.8" fill="#fff" fill-opacity="0.07"/><circle cx="245.7" cy="61.7" r="0.8" fill="#fff" fill-opacity="0.08"/><circle cx="195.8" cy="57.0" r="0.8" fill="#fff" fill-opacity="0.05"/><circle cx="556.7" cy="204.4" r="0.8" fill="#fff" fill-opacity="0.09"/><circle cx="577.9" cy="377.3" r="0.8" fill="#fff" fill-opacity="0.05"/><circle cx="633.2" cy="76.6" r="0.8" fill="#fff" fill-opacity="0.07"/><circle cx="199.1" cy="237.4" r="0.8" fill="#fff" fill-opacity="0.05"/><circle cx="57.3" cy="177.3" r="0.8" fill="#fff" fill-opacity="0.05"/><circle cx="631.0" cy="263.1" r="0.8" fill="#fff" fill-opacity="0.08"/><circle cx="39.1" cy="240.3" r="0.8" fill="#fff" fill-opacity="0.07"/><circle cx="126.3" cy="52.2" r="0.8" fill="#fff" fill-opacity="0.08"/><circle cx="43.0" cy="242.5" r="0.8" fill="#fff" fill-opacity="0.09"/><circle cx="434.6" cy="225.1" r="0.8" fill="#fff" fill-opacity="0.05"/><circle cx="149.3" cy="41.4" r="0.8" fill="#fff" fill-opacity="0.05"/><circle cx="2.4" cy="13.0" r="0.8" fill="#fff" fill-opacity="0.07"/><circle cx="72.6" cy="182.4" r="0.8" fill="#fff" fill-opacity="0.04"/><circle cx="598.1" cy="61.4" r="0.8" fill="#fff" fill-opacity="0.06"/><circle cx="73.1" cy="398.3" r="0.8" fill="#fff" fill-opacity="0.09"/><circle cx="6.4" cy="176.8" r="0.8" fill="#fff" fill-opacity="0.09"/><circle cx="123.1" cy="79.9" r="0.8" fill="#fff" fill-opacity="0.10"/><circle cx="639.2" cy="192.2" r="0.8" fill="#fff" fill-opacity="0.09"/><circle cx="401.1" cy="332.7" r="0.8" fill="#fff" fill-opacity="0.08"/><circle cx="444.1" cy="143.6" r="0.8" fill="#fff" fill-opacity="0.09"/><circle cx="97.2" cy="146.1" r="0.8" fill="#fff" fill-opacity="0.10"/><circle cx="614.1" cy="115.4" r="0.8" fill="#fff" fill-opacity="0.05"/><circle cx="211.2" cy="226.4" r="0.8" fill="#fff" fill-opacity="0.08"/><circle cx="252.7" cy="268.8" r="0.8" fill="#fff" fill-opacity="0.09"/><circle cx="399.7" cy="350.1" r="0.8" fill="#fff" fill-opacity="0.08"/><circle cx="311.1" cy="53.8" r="0.8" fill="#fff" fill-opacity="0.09"/><circle cx="265.6" cy="127.6" r="0.8" fill="#fff" fill-opacity="0.05"/><circle cx="185.7" cy="302.9" r="0.8" fill="#fff" fill-opacity="0.09"/><circle cx="391.2" cy="258.8" r="0.8" fill="#fff" fill-opacity="0.09"/><circle cx="172.8" cy="354.2" r="0.8" fill="#fff" fill-opacity="0.07"/><circle cx="270.7" cy="0.3" r="0.8" fill="#fff" fill-opacity="0.05"/><circle cx="335.5" cy="145.8" r="0.8" fill="#fff" fill-opacity="0.08"/><circle cx="624.4" cy="120.8" r="0.8" fill="#fff" fill-opacity="0.04"/><circle cx="261.1" cy="4.1" r="0.8" fill="#fff" fill-opacity="0.06"/><circle cx="39.8" cy="59.1" r="0.8" fill="#fff" fill-opacity="0.08"/><circle cx="106.4" cy="63.3" r="0.8" fill="#fff" fill-opacity="0.08"/><circle cx="109.1" cy="251.2" r="0.8" fill="#fff" fill-opacity="0.10"/><circle cx="605.4" cy="293.3" r="0.8" fill="#fff" fill-opacity="0.06"/><circle cx="406.5" cy="277.6" r="0.8" fill="#fff" fill-opacity="0.08"/><circle cx="454.7" cy="290.7" r="0.8" fill="#fff" fill-opacity="0.04"/><circle cx="32.1" cy="11.0" r="0.8" fill="#fff" fill-opacity="0.06"/><circle cx="171.9" cy="379.6" r="0.8" fill="#fff" fill-opacity="0.06"/><circle cx="604.8" cy="357.1" r="0.8" fill="#fff" fill-opacity="0.06"/><circle cx="436.5" cy="76.0" r="0.8" fill="#fff" fill-opacity="0.06"/><circle cx="602.5" cy="289.5" r="0.8" fill="#fff" fill-opacity="0.07"/><circle cx="411.9" cy="207.4" r="0.8" fill="#fff" fill-opacity="0.06"/><circle cx="190.9" cy="140.4" r="0.8" fill="#fff" fill-opacity="0.10"/><circle cx="27.2" cy="163.4" r="0.8" fill="#fff" fill-opacity="0.09"/><circle cx="19.4" cy="371.2" r="0.8" fill="#fff" fill-opacity="0.08"/><circle cx="483.0" cy="161.3" r="0.8" fill="#fff" fill-opacity="0.04"/><circle cx="405.1" cy="179.4" r="0.8" fill="#fff" fill-opacity="0.05"/><circle cx="319.9" cy="59.9" r="0.8" fill="#fff" fill-opacity="0.06"/><circle cx="552.9" cy="369.3" r="0.8" fill="#fff" fill-opacity="0.06"/><circle cx="107.5" cy="88.3" r="0.8" fill="#fff" fill-opacity="0.04"/><circle cx="471.2" cy="235.3" r="0.8" fill="#fff" fill-opacity="0.08"/><circle cx="221.0" cy="220.5" r="0.8" fill="#fff" fill-opacity="0.04"/><circle cx="319.4" cy="223.2" r="0.8" fill="#fff" fill-opacity="0.06"/><circle cx="4.4" cy="293.1" r="0.8" fill="#fff" fill-opacity="0.06"/><circle cx="100.3" cy="152.3" r="0.8" fill="#fff" fill-opacity="0.07"/><circle cx="215.2" cy="67.7" r="0.8" fill="#fff" fill-opacity="0.06"/><circle cx="244.7" cy="292.8" r="0.8" fill="#fff" fill-opacity="0.09"/><circle cx="439.8" cy="181.0" r="0.8" fill="#fff" fill-opacity="0.06"/><circle cx="617.4" cy="45.6" r="0.8" fill="#fff" fill-opacity="0.05"/><circle cx="505.1" cy="221.0" r="0.8" fill="#fff" fill-opacity="0.08"/><circle cx="5.5" cy="93.7" r="0.8" fill="#fff" fill-opacity="0.08"/><circle cx="203.1" cy="310.7" r="0.8" fill="#fff" fill-opacity="0.08"/><circle cx="535.1" cy="98.9" r="0.8" fill="#fff" fill-opacity="0.07"/><circle cx="220.4" cy="368.1" r="0.8" fill="#fff" fill-opacity="0.09"/><circle cx="447.2" cy="374.6" r="0.8" fill="#fff" fill-opacity="0.06"/><circle cx="411.5" cy="173.7" r="0.8" fill="#fff" fill-opacity="0.04"/><circle cx="106.0" cy="14.1" r="0.8" fill="#fff" fill-opacity="0.06"/><circle cx="487.0" cy="265.1" r="0.8" fill="#fff" fill-opacity="0.06"/><circle cx="612.6" cy="313.1" r="0.8" fill="#fff" fill-opacity="0.09"/><circle cx="169.4" cy="152.8" r="0.8" fill="#fff" fill-opacity="0.08"/><circle cx="416.3" cy="0.3" r="0.8" fill="#fff" fill-opacity="0.09"/><circle cx="275.3" cy="110.8" r="0.8" fill="#fff" fill-opacity="0.07"/><circle cx="196.1" cy="50.9" r="0.8" fill="#fff" fill-opacity="0.04"/><circle cx="211.0" cy="169.9" r="0.8" fill="#fff" fill-opacity="0.06"/><circle cx="110.9" cy="41.9" r="0.8" fill="#fff" fill-opacity="0.07"/><circle cx="83.1" cy="128.1" r="0.8" fill="#fff" fill-opacity="0.06"/><circle cx="252.4" cy="163.7" r="0.8" fill="#fff" fill-opacity="0.08"/><circle cx="271.6" cy="99.0" r="0.8" fill="#fff" fill-opacity="0.08"/><circle cx="633.2" cy="308.2" r="0.8" fill="#fff" fill-opacity="0.05"/><circle cx="360.0" cy="162.1" r="0.8" fill="#fff" fill-opacity="0.09"/><circle cx="419.7" cy="321.5" r="0.8" fill="#fff" fill-opacity="0.04"/><circle cx="125.4" cy="26.7" r="0.8" fill="#fff" fill-opacity="0.05"/><circle cx="305.9" cy="255.5" r="0.8" fill="#fff" fill-opacity="0.09"/><circle cx="518.1" cy="150.0" r="0.8" fill="#fff" fill-opacity="0.07"/><circle cx="323.6" cy="244.5" r="0.8" fill="#fff" fill-opacity="0.04"/><circle cx="129.2" cy="21.9" r="0.8" fill="#fff" fill-opacity="0.05"/><circle cx="498.0" cy="192.2" r="0.8" fill="#fff" fill-opacity="0.09"/><circle cx="446.9" cy="206.6" r="0.8" fill="#fff" fill-opacity="0.05"/><circle cx="33.3" cy="306.1" r="0.8" fill="#fff" fill-opacity="0.06"/><circle cx="231.5" cy="82.7" r="0.8" fill="#fff" fill-opacity="0.07"/><circle cx="255.5" cy="264.7" r="0.8" fill="#fff" fill-opacity="0.06"/><circle cx="268.9" cy="8.2" r="0.8" fill="#fff" fill-opacity="0.04"/><circle cx="299.9" cy="75.9" r="0.8" fill="#fff" fill-opacity="0.07"/><circle cx="344.5" cy="161.2" r="0.8" fill="#fff" fill-opacity="0.08"/><circle cx="422.6" cy="158.3" r="0.8" fill="#fff" fill-opacity="0.09"/><circle cx="331.5" cy="58.9" r="0.8" fill="#fff" fill-opacity="0.08"/><circle cx="164.8" cy="226.7" r="0.8" fill="#fff" fill-opacity="0.09"/><circle cx="351.9" cy="146.4" r="0.8" fill="#fff" fill-opacity="0.08"/><circle cx="400.2" cy="161.8" r="0.8" fill="#fff" fill-opacity="0.07"/><circle cx="403.3" cy="56.0" r="0.8" fill="#fff" fill-opacity="0.09"/><circle cx="27.4" cy="347.2" r="0.8" fill="#fff" fill-opacity="0.09"/><circle cx="260.0" cy="286.3" r="0.8" fill="#fff" fill-opacity="0.09"/><circle cx="317.4" cy="149.3" r="0.8" fill="#fff" fill-opacity="0.04"/><circle cx="52.0" cy="173.4" r="0.8" fill="#fff" fill-opacity="0.09"/><circle cx="422.4" cy="361.1" r="0.8" fill="#fff" fill-opacity="0.10"/><circle cx="607.3" cy="238.6" r="0.8" fill="#fff" fill-opacity="0.10"/><circle cx="136.5" cy="379.5" r="0.8" fill="#fff" fill-opacity="0.05"/><circle cx="536.3" cy="324.4" r="0.8" fill="#fff" fill-opacity="0.07"/><circle cx="562.4" cy="294.7" r="0.8" fill="#fff" fill-opacity="0.05"/><circle cx="251.1" cy="330.5" r="0.8" fill="#fff" fill-opacity="0.08"/><circle cx="255.6" cy="376.8" r="0.8" fill="#fff" fill-opacity="0.08"/><circle cx="91.9" cy="69.7" r="0.8" fill="#fff" fill-opacity="0.08"/><circle cx="301.6" cy="74.4" r="0.8" fill="#fff" fill-opacity="0.09"/><circle cx="198.5" cy="43.6" r="0.8" fill="#fff" fill-opacity="0.09"/><circle cx="464.4" cy="40.6" r="0.8" fill="#fff" fill-opacity="0.06"/><circle cx="201.5" cy="357.7" r="0.8" fill="#fff" fill-opacity="0.06"/><circle cx="202.1" cy="36.8" r="0.8" fill="#fff" fill-opacity="0.05"/><circle cx="104.4" cy="269.0" r="0.8" fill="#fff" fill-opacity="0.08"/><circle cx="253.7" cy="245.0" r="0.8" fill="#fff" fill-opacity="0.09"/><circle cx="322.8" cy="319.1" r="0.8" fill="#fff" fill-opacity="0.05"/><circle cx="36.3" cy="23.7" r="0.8" fill="#fff" fill-opacity="0.06"/><circle cx="28.9" cy="371.6" r="0.8" fill="#fff" fill-opacity="0.09"/><circle cx="135.3" cy="101.2" r="0.8" fill="#fff" fill-opacity="0.06"/><circle cx="522.2" cy="354.9" r="0.8" fill="#fff" fill-opacity="0.08"/><circle cx="55.9" cy="165.3" r="0.8" fill="#fff" fill-opacity="0.09"/><circle cx="353.5" cy="81.8" r="0.8" fill="#fff" fill-opacity="0.05"/><circle cx="618.8" cy="324.0" r="0.8" fill="#fff" fill-opacity="0.09"/><circle cx="563.4" cy="363.0" r="0.8" fill="#fff" fill-opacity="0.05"/><circle cx="191.5" cy="294.5" r="0.8" fill="#fff" fill-opacity="0.06"/><circle cx="17.2" cy="334.5" r="0.8" fill="#fff" fill-opacity="0.09"/><circle cx="403.2" cy="205.8" r="0.8" fill="#fff" fill-opacity="0.09"/><circle cx="463.4" cy="334.1" r="0.8" fill="#fff" fill-opacity="0.08"/><circle cx="162.0" cy="31.8" r="0.8" fill="#fff" fill-opacity="0.05"/><circle cx="473.8" cy="366.4" r="0.8" fill="#fff" fill-opacity="0.06"/><circle cx="84.5" cy="355.7" r="0.8" fill="#fff" fill-opacity="0.07"/><circle cx="118.0" cy="242.0" r="0.8" fill="#fff" fill-opacity="0.07"/><circle cx="455.9" cy="115.9" r="0.8" fill="#fff" fill-opacity="0.07"/><circle cx="291.2" cy="76.9" r="0.8" fill="#fff" fill-opacity="0.04"/><circle cx="512.8" cy="278.8" r="0.8" fill="#fff" fill-opacity="0.04"/><circle cx="200.4" cy="3.9" r="0.8" fill="#fff" fill-opacity="0.06"/><circle cx="104.1" cy="17.2" r="0.8" fill="#fff" fill-opacity="0.09"/><circle cx="147.5" cy="374.9" r="0.8" fill="#fff" fill-opacity="0.05"/><circle cx="479.7" cy="144.7" r="0.8" fill="#fff" fill-opacity="0.07"/><circle cx="541.8" cy="230.9" r="0.8" fill="#fff" fill-opacity="0.06"/><circle cx="237.1" cy="310.7" r="0.8" fill="#fff" fill-opacity="0.09"/><circle cx="54.6" cy="386.1" r="0.8" fill="#fff" fill-opacity="0.05"/><circle cx="632.1" cy="236.2" r="0.8" fill="#fff" fill-opacity="0.08"/><circle cx="479.6" cy="182.7" r="0.8" fill="#fff" fill-opacity="0.08"/><circle cx="552.7" cy="79.2" r="0.8" fill="#fff" fill-opacity="0.08"/>
  <g transform="translate(256 34) scale(0.233)">
    <path d="M263.104 281C264.69 281 266.208 280.352 267.305 279.207L437.784 101.195C441.921 96.8749 449.101 100.865 447.616 106.658L412.208 244.872C409.066 257.136 418.331 269.071 430.992 269.071H552.688C561.545 269.071 569.276 263.072 571.474 254.494L634.815 7.25716C635.757 3.57844 632.979 8.90364e-06 629.182 8.90364e-06H489.993C489.886 8.90364e-06 489.78 0.00580769 489.676 0.00726115C489.545 0.00435422 489.413 8.90364e-06 489.28 8.90364e-06H264.366C257.509 8.90364e-06 250.932 2.72379 246.083 7.57255L5.71835 247.901C-6.49742 260.115 2.15458 280.999 19.4303 281H263.104Z" fill="#f4f4f5"/>
  </g>
  <rect x="120" y="130" width="120" height="120" rx="12" fill="#fff" fill-opacity=".04" stroke="#fff" stroke-opacity=".14" stroke-width="1"/>
  <rect x="420" y="130" width="120" height="120" rx="12" fill="#fff" fill-opacity=".04" stroke="#fff" stroke-opacity=".14" stroke-width="1"/>
  <path d="M318 180 L344 190 L318 200 Z" fill="#fff" fill-opacity=".5"/>
  <text x="330" y="284" text-anchor="middle"
    font-family="-apple-system, system-ui, sans-serif" font-size="12"
    fill="#fff" fill-opacity=".4">Drag aeri to Applications</text>
</svg>